<?xml version="1.0" encoding="iso-8859-1"?>
<!-- Generator: Adobe Illustrator 19.0.0, SVG Export Plug-In . SVG Version: 6.00 Build 0)  -->
<svg version="1.1" id="Capa_1" xmlns="http://www.w3.org/2000/svg" xmlns:xlink="http://www.w3.org/1999/xlink" x="0px" y="0px"
	 viewBox="0 0 512 512" style="enable-background:new 0 0 512 512;" xml:space="preserve">
<path style="fill:#E2E2E2;" d="M502.972,455.346L429.47,115.783l-22.067,368.133h72.522
	C494.959,483.916,506.154,470.038,502.972,455.346z"/>
<path style="fill:#BABABA;" d="M450.472,461.848V212.803l-21.001-97.02l-22.067,368.133h21.001
	C440.542,483.916,450.472,473.985,450.472,461.848z"/>
<path style="fill:#EFEFEF;" d="M408.403,93.715c-23.835,0-367.365,0-378.817,0c-12.137,0-22.067,9.931-22.067,22.067v346.066
	c0,12.137,9.931,22.067,22.067,22.067h378.817c12.137,0,22.067-9.931,22.067-22.067V115.783
	C430.47,103.645,420.541,93.715,408.403,93.715z"/>
<path style="fill:#E2E2E2;" d="M27.521,461.848V115.783c0-12.137,9.931-22.067,22.067-22.067H29.587
	c-12.137,0-22.067,9.931-22.067,22.067v346.066c0,12.137,9.931,22.067,22.067,22.067h20.001
	C37.451,483.916,27.521,473.985,27.521,461.848z"/>
<path style="fill:#85C2EF;" d="M305.772,290.448l-26.616-33.946c-62.335-50.384-155.958-5.969-155.958,74.527
	c0,52.906,42.889,95.795,95.795,95.795C289.017,426.824,335.491,353.879,305.772,290.448z"/>
<path style="fill:#69AFEB;" d="M143.2,331.029c0-49.498,37.543-90.225,85.706-95.266c-56.956-5.868-105.707,38.808-105.707,95.266
	c0,56.699,49.029,101.166,105.796,95.277C180.789,421.305,143.2,380.558,143.2,331.029z"/>
<path style="fill:#FFA92C;" d="M203.789,370.384l-28.198-36.656c-7.122-9.258-5.39-22.534,3.866-29.656
	c9.259-7.119,22.533-5.39,29.656,3.868l12.313,16.005l58.484-68.323c7.593-8.872,20.947-9.907,29.818-2.314
	c8.872,7.595,9.909,20.945,2.313,29.819l-75.425,88.115C227.89,381.434,211.973,381.024,203.789,370.384z"/>
<path style="fill:#F2961D;" d="M310.445,253.989l-73.829,86.252c-8.722,10.189-24.641,9.784-32.826-0.858l-26.036-33.846
	c-7.736,7.366-8.823,19.535-2.162,28.192l28.199,36.656c8.162,10.613,24.077,11.078,32.826,0.858l75.425-88.115
	C319.419,274.507,318.628,261.678,310.445,253.989z"/>
<path style="fill:#FF4B4B;" d="M408.403,93.715c-23.835,0-367.365,0-378.817,0c-12.137,0-22.067,9.931-22.067,22.067v64.712H430.47
	v-64.712C430.47,103.645,420.541,93.715,408.403,93.715z"/>
<path style="fill:#C83741;" d="M49.6,93.715H29.587c-12.137,0-22.067,9.931-22.067,22.067v64.712h20.013v-64.712
	C27.533,103.645,37.463,93.715,49.6,93.715z"/>
<g>
	<path style="fill:#FFCF65;" d="M102.636,137.105h-23.81c-6.6,0-12.001-5.4-12.001-12.001V40.085c0-6.6,5.4-12.001,12.001-12.001
		h23.81c6.6,0,12.001,5.4,12.001,12.001v85.019C114.636,131.705,109.236,137.105,102.636,137.105z"/>
	<path style="fill:#FFCF65;" d="M359.165,137.105h-23.81c-6.6,0-12.001-5.4-12.001-12.001V40.085c0-6.6,5.4-12.001,12.001-12.001
		h23.81c6.6,0,12.001,5.4,12.001,12.001v85.019C371.166,131.705,365.766,137.105,359.165,137.105z"/>
	<path style="fill:#FFCF65;" d="M230.9,137.105h-23.81c-6.6,0-12.001-5.4-12.001-12.001V40.085c0-6.6,5.4-12.001,12.001-12.001
		h23.81c6.6,0,12.001,5.4,12.001,12.001v85.019C242.901,131.705,237.5,137.105,230.9,137.105z"/>
</g>
<g>
	<path style="fill:#FFB450;" d="M86.826,125.104V40.085c0-6.6,5.4-12.001,12.001-12.001H78.825c-6.6,0-12.001,5.4-12.001,12.001
		v85.019c0,6.6,5.4,12.001,12.001,12.001h20.001C92.226,137.105,86.826,131.704,86.826,125.104z"/>
	<path style="fill:#FFB450;" d="M343.355,125.104V40.085c0-6.6,5.4-12.001,12.001-12.001h-20.001c-6.6,0-12.001,5.4-12.001,12.001
		v85.019c0,6.6,5.4,12.001,12.001,12.001h20.001C348.755,137.105,343.355,131.704,343.355,125.104z"/>
	<path style="fill:#FFB450;" d="M215.09,125.104V40.085c0-6.6,5.4-12.001,12.001-12.001H207.09c-6.6,0-12.001,5.4-12.001,12.001
		v85.019c0,6.6,5.4,12.001,12.001,12.001h20.001C220.49,137.105,215.09,131.704,215.09,125.104z"/>
</g>
<g>
	<path style="fill:#020202;" d="M511.285,453.759L437.93,114.874c-0.483-15.884-13.546-28.659-29.545-28.659h-29.737v-46.13
		c0-10.753-8.749-19.501-19.501-19.501h-23.811c-10.753,0-19.501,8.748-19.501,19.501v46.13h-65.452v-46.13
		c0-10.753-8.748-19.501-19.501-19.501h-23.81c-10.753,0-19.501,8.748-19.501,19.501v46.13h-65.452v-46.13
		c0-10.753-8.748-19.501-19.501-19.501H78.806c-10.753,0-19.501,8.748-19.501,19.501v46.13H29.567C13.264,86.215,0,99.479,0,115.783
		c0,9.679,0,335.655,0,346.066c0,16.304,13.264,29.568,29.567,29.568h171.908c4.142,0,7.5-3.357,7.5-7.5s-3.358-7.5-7.5-7.5H29.567
		c-8.031,0-14.566-6.534-14.566-14.567V187.994h407.951v125.534c0,4.143,3.357,7.5,7.5,7.5c4.143,0,7.5-3.357,7.5-7.5V185.885
		l58.671,271.047c2.17,10.03-5.475,19.482-15.717,19.482H434.1c5.137-9.034,3.853-3.879,3.853-127.885c0-4.143-3.357-7.5-7.5-7.5
		c-4.143,0-7.5,3.357-7.5,7.5v113.318c0,8.032-6.534,14.567-14.567,14.567H236.476c-4.142,0-7.5,3.357-7.5,7.5s3.358,7.5,7.5,7.5
		c17.979,0,237.229,0,244.431,0C500.742,491.416,515.473,473.106,511.285,453.759z M330.835,40.085c0-2.439,2.061-4.5,4.5-4.5
		h23.811c2.439,0,4.5,2.061,4.5,4.5v85.019c0,2.439-2.061,4.5-4.5,4.5h-23.811c-2.439,0-4.5-2.061-4.5-4.5V40.085z M202.57,40.085
		c0-2.439,2.061-4.5,4.5-4.5h23.81c2.439,0,4.5,2.061,4.5,4.5v85.019c0,2.439-2.061,4.5-4.5,4.5h-23.81c-2.439,0-4.5-2.061-4.5-4.5
		V40.085z M74.306,40.085c0-2.439,2.061-4.5,4.5-4.5h23.81c2.439,0,4.5,2.061,4.5,4.5v85.019c0,2.439-2.061,4.5-4.5,4.5h-23.81
		c-2.439,0-4.5-2.061-4.5-4.5V40.085z M422.952,172.993H15.001v-57.211c0-8.032,6.534-14.567,14.566-14.567h29.738v23.888
		c0,10.753,8.748,19.501,19.501,19.501h23.81c10.753,0,19.501-8.749,19.501-19.501v-23.887h65.452v23.888
		c0,10.753,8.748,19.501,19.501,19.501h23.81c10.753,0,19.501-8.749,19.501-19.501v-23.888h65.452v23.888
		c0,10.753,8.748,19.501,19.501,19.501h23.811c10.753,0,19.501-8.749,19.501-19.501v-23.888h29.737
		c8.032,0,14.567,6.534,14.567,14.567C422.952,126.543,422.952,162.364,422.952,172.993z"/>
	<path style="fill:#020202;" d="M285.847,242.563c-2.623,0.985-5.157,2.397-7.332,4.072c-17.341-12.231-38.236-18.902-59.539-18.902
		c-56.957,0-103.296,46.339-103.296,103.296s46.338,103.296,103.296,103.296c73.3,0,123.534-74.777,95.542-142.582
		c2.624-3.065,1.991-2.326,3.201-3.74l-0.001,0.001C336.667,265.87,313.853,232.051,285.847,242.563z M218.975,419.324
		c-48.686,0-88.295-39.608-88.295-88.295s39.608-88.295,88.295-88.295c17.812,0,34.681,5.165,49.233,15.003l-46.492,54.311
		l-6.678-8.681c-9.631-12.518-27.653-14.867-40.174-5.239c-12.55,9.656-14.893,27.624-5.237,40.174l28.199,36.656
		c11.172,14.522,32.722,14.884,44.47,1.161l61.018-71.286c2.63,8.434,3.958,17.205,3.958,26.196
		C307.271,379.716,267.661,419.324,218.975,419.324z M306.323,278.248C306.323,278.249,306.323,278.249,306.323,278.248
		c-31.062,36.289-44.178,51.613-75.424,88.115c-2.597,3.034-6.375,4.773-10.368,4.773c-4.526-0.05-8.329-2.093-10.816-5.326
		l-28.199-36.656c-6.86-8.917-0.53-21.961,10.8-21.961c4.095,0,8.148,1.831,10.834,5.32l12.313,16.005
		c2.872,3.732,8.51,3.964,11.643,0.304c63.018-73.617,59.086-69.41,61.513-70.961c2.354-1.504,5.044-2.183,7.638-2.128
		C307.743,255.982,313.786,269.532,306.323,278.248z"/>
</g>
<g>
</g>
<g>
</g>
<g>
</g>
<g>
</g>
<g>
</g>
<g>
</g>
<g>
</g>
<g>
</g>
<g>
</g>
<g>
</g>
<g>
</g>
<g>
</g>
<g>
</g>
<g>
</g>
<g>
</g>
</svg>
